<?xml version="1.0" encoding="utf-8" standalone="no"?>
<!DOCTYPE svg PUBLIC "-//W3C//DTD SVG 1.1//EN"
  "http://www.w3.org/Graphics/SVG/1.1/DTD/svg11.dtd">
<svg xmlns:xlink="http://www.w3.org/1999/xlink" width="432pt" height="432pt" viewBox="0 0 432 432" xmlns="http://www.w3.org/2000/svg" version="1.1">
 <metadata>
  <rdf:RDF xmlns:dc="http://purl.org/dc/elements/1.1/" xmlns:cc="http://creativecommons.org/ns#" xmlns:rdf="http://www.w3.org/1999/02/22-rdf-syntax-ns#">
   <cc:Work>
    <dc:type rdf:resource="http://purl.org/dc/dcmitype/StillImage"/>
    <dc:date>2026-02-21T00:59:04.005523</dc:date>
    <dc:format>image/svg+xml</dc:format>
    <dc:creator>
     <cc:Agent>
      <dc:title>Matplotlib v3.10.8, https://matplotlib.org/</dc:title>
     </cc:Agent>
    </dc:creator>
   </cc:Work>
  </rdf:RDF>
 </metadata>
 <defs>
  <style type="text/css">*{stroke-linejoin: round; stroke-linecap: butt}</style>
 </defs>
 <g id="figure_1">
  <g id="patch_1">
   <path d="M 0 432 
L 432 432 
L 432 0 
L 0 0 
z
" style="fill: #0d1117"/>
  </g>
  <g id="axes_1">
   <g id="patch_2">
    <path d="M 387.72 218.16 
C 387.72 196.319058 383.417811 174.690491 375.059644 154.512092 
C 366.701477 134.333692 354.449878 115.997879 339.006 100.554 
C 323.562121 85.110122 305.226308 72.858523 285.047908 64.500356 
C 264.869509 56.142189 243.240942 51.84 221.4 51.84 
C 199.559058 51.84 177.930491 56.142189 157.752092 64.500356 
C 137.573692 72.858523 119.237879 85.110122 103.794 100.554 
C 88.350122 115.997879 76.098523 134.333692 67.740356 154.512092 
C 59.382189 174.690491 55.08 196.319058 55.08 218.16 
C 55.08 240.000942 59.382189 261.629509 67.740356 281.807908 
C 76.098523 301.986308 88.350122 320.322121 103.794 335.766 
C 119.237879 351.209878 137.573692 363.461477 157.752092 371.819644 
C 177.930491 380.177811 199.559058 384.48 221.4 384.48 
C 243.240942 384.48 264.869509 380.177811 285.047908 371.819644 
C 305.226308 363.461477 323.562121 351.209878 339.006 335.766 
C 354.449878 320.322121 366.701477 301.986308 375.059644 281.807908 
C 383.417811 261.629509 387.72 240.000942 387.72 218.16 
M 221.4 218.16 
C 221.4 218.16 221.4 218.16 221.4 218.16 
C 221.4 218.16 221.4 218.16 221.4 218.16 
C 221.4 218.16 221.4 218.16 221.4 218.16 
C 221.4 218.16 221.4 218.16 221.4 218.16 
C 221.4 218.16 221.4 218.16 221.4 218.16 
C 221.4 218.16 221.4 218.16 221.4 218.16 
C 221.4 218.16 221.4 218.16 221.4 218.16 
C 221.4 218.16 221.4 218.16 221.4 218.16 
C 221.4 218.16 221.4 218.16 221.4 218.16 
C 221.4 218.16 221.4 218.16 221.4 218.16 
C 221.4 218.16 221.4 218.16 221.4 218.16 
C 221.4 218.16 221.4 218.16 221.4 218.16 
C 221.4 218.16 221.4 218.16 221.4 218.16 
C 221.4 218.16 221.4 218.16 221.4 218.16 
C 221.4 218.16 221.4 218.16 221.4 218.16 
C 221.4 218.16 221.4 218.16 221.4 218.16 
z
" style="fill: #0d1117"/>
   </g>
   <g id="patch_3">
    <path d="M 379.8 218.16 
L 221.4 218.16 
L 152.286989 218.16 
L 221.4 274.236068 
z
" clip-path="url(#p6ede8c47f8)" style="fill: #2ea043; opacity: 0.4; stroke: #2ea043; stroke-linejoin: miter"/>
   </g>
   <g id="matplotlib.axis_1">
    <g id="xtick_1">
     <g id="line2d_1">
      <path d="M 221.4 218.16 
L 387.72 218.16 
" clip-path="url(#p6ede8c47f8)" style="fill: none; stroke: #30363d; stroke-width: 0.8; stroke-linecap: square"/>
     </g>
     <g id="text_1">
      <!-- Commits -->
      <g style="fill: #c9d1d9" transform="translate(377.250156 221.195312) scale(0.11 -0.11)">
       <defs>
        <path id="DejaVuSans-43" d="M 4122 4306 
L 4122 3641 
Q 3803 3938 3442 4084 
Q 3081 4231 2675 4231 
Q 1875 4231 1450 3742 
Q 1025 3253 1025 2328 
Q 1025 1406 1450 917 
Q 1875 428 2675 428 
Q 3081 428 3442 575 
Q 3803 722 4122 1019 
L 4122 359 
Q 3791 134 3420 21 
Q 3050 -91 2638 -91 
Q 1578 -91 968 557 
Q 359 1206 359 2328 
Q 359 3453 968 4101 
Q 1578 4750 2638 4750 
Q 3056 4750 3426 4639 
Q 3797 4528 4122 4306 
z
" transform="scale(0.015625)"/>
        <path id="DejaVuSans-6f" d="M 1959 3097 
Q 1497 3097 1228 2736 
Q 959 2375 959 1747 
Q 959 1119 1226 758 
Q 1494 397 1959 397 
Q 2419 397 2687 759 
Q 2956 1122 2956 1747 
Q 2956 2369 2687 2733 
Q 2419 3097 1959 3097 
z
M 1959 3584 
Q 2709 3584 3137 3096 
Q 3566 2609 3566 1747 
Q 3566 888 3137 398 
Q 2709 -91 1959 -91 
Q 1206 -91 779 398 
Q 353 888 353 1747 
Q 353 2609 779 3096 
Q 1206 3584 1959 3584 
z
" transform="scale(0.015625)"/>
        <path id="DejaVuSans-6d" d="M 3328 2828 
Q 3544 3216 3844 3400 
Q 4144 3584 4550 3584 
Q 5097 3584 5394 3201 
Q 5691 2819 5691 2113 
L 5691 0 
L 5113 0 
L 5113 2094 
Q 5113 2597 4934 2840 
Q 4756 3084 4391 3084 
Q 3944 3084 3684 2787 
Q 3425 2491 3425 1978 
L 3425 0 
L 2847 0 
L 2847 2094 
Q 2847 2600 2669 2842 
Q 2491 3084 2119 3084 
Q 1678 3084 1418 2786 
Q 1159 2488 1159 1978 
L 1159 0 
L 581 0 
L 581 3500 
L 1159 3500 
L 1159 2956 
Q 1356 3278 1631 3431 
Q 1906 3584 2284 3584 
Q 2666 3584 2933 3390 
Q 3200 3197 3328 2828 
z
" transform="scale(0.015625)"/>
        <path id="DejaVuSans-69" d="M 603 3500 
L 1178 3500 
L 1178 0 
L 603 0 
L 603 3500 
z
M 603 4863 
L 1178 4863 
L 1178 4134 
L 603 4134 
L 603 4863 
z
" transform="scale(0.015625)"/>
        <path id="DejaVuSans-74" d="M 1172 4494 
L 1172 3500 
L 2356 3500 
L 2356 3053 
L 1172 3053 
L 1172 1153 
Q 1172 725 1289 603 
Q 1406 481 1766 481 
L 2356 481 
L 2356 0 
L 1766 0 
Q 1100 0 847 248 
Q 594 497 594 1153 
L 594 3053 
L 172 3053 
L 172 3500 
L 594 3500 
L 594 4494 
L 1172 4494 
z
" transform="scale(0.015625)"/>
        <path id="DejaVuSans-73" d="M 2834 3397 
L 2834 2853 
Q 2591 2978 2328 3040 
Q 2066 3103 1784 3103 
Q 1356 3103 1142 2972 
Q 928 2841 928 2578 
Q 928 2378 1081 2264 
Q 1234 2150 1697 2047 
L 1894 2003 
Q 2506 1872 2764 1633 
Q 3022 1394 3022 966 
Q 3022 478 2636 193 
Q 2250 -91 1575 -91 
Q 1294 -91 989 -36 
Q 684 19 347 128 
L 347 722 
Q 666 556 975 473 
Q 1284 391 1588 391 
Q 1994 391 2212 530 
Q 2431 669 2431 922 
Q 2431 1156 2273 1281 
Q 2116 1406 1581 1522 
L 1381 1569 
Q 847 1681 609 1914 
Q 372 2147 372 2553 
Q 372 3047 722 3315 
Q 1072 3584 1716 3584 
Q 2034 3584 2315 3537 
Q 2597 3491 2834 3397 
z
" transform="scale(0.015625)"/>
       </defs>
       <use xlink:href="#DejaVuSans-43"/>
       <use xlink:href="#DejaVuSans-6f" transform="translate(69.824219 0)"/>
       <use xlink:href="#DejaVuSans-6d" transform="translate(131.005859 0)"/>
       <use xlink:href="#DejaVuSans-6d" transform="translate(228.417969 0)"/>
       <use xlink:href="#DejaVuSans-69" transform="translate(325.830078 0)"/>
       <use xlink:href="#DejaVuSans-74" transform="translate(353.613281 0)"/>
       <use xlink:href="#DejaVuSans-73" transform="translate(392.822266 0)"/>
      </g>
     </g>
    </g>
    <g id="xtick_2">
     <g id="line2d_2">
      <path d="M 221.4 218.16 
L 221.4 51.84 
" clip-path="url(#p6ede8c47f8)" style="fill: none; stroke: #30363d; stroke-width: 0.8; stroke-linecap: square"/>
     </g>
     <g id="text_2">
      <!-- Code Review -->
      <g style="fill: #c9d1d9" transform="translate(185.946484 40.875312) scale(0.11 -0.11)">
       <defs>
        <path id="DejaVuSans-64" d="M 2906 2969 
L 2906 4863 
L 3481 4863 
L 3481 0 
L 2906 0 
L 2906 525 
Q 2725 213 2448 61 
Q 2172 -91 1784 -91 
Q 1150 -91 751 415 
Q 353 922 353 1747 
Q 353 2572 751 3078 
Q 1150 3584 1784 3584 
Q 2172 3584 2448 3432 
Q 2725 3281 2906 2969 
z
M 947 1747 
Q 947 1113 1208 752 
Q 1469 391 1925 391 
Q 2381 391 2643 752 
Q 2906 1113 2906 1747 
Q 2906 2381 2643 2742 
Q 2381 3103 1925 3103 
Q 1469 3103 1208 2742 
Q 947 2381 947 1747 
z
" transform="scale(0.015625)"/>
        <path id="DejaVuSans-65" d="M 3597 1894 
L 3597 1613 
L 953 1613 
Q 991 1019 1311 708 
Q 1631 397 2203 397 
Q 2534 397 2845 478 
Q 3156 559 3463 722 
L 3463 178 
Q 3153 47 2828 -22 
Q 2503 -91 2169 -91 
Q 1331 -91 842 396 
Q 353 884 353 1716 
Q 353 2575 817 3079 
Q 1281 3584 2069 3584 
Q 2775 3584 3186 3129 
Q 3597 2675 3597 1894 
z
M 3022 2063 
Q 3016 2534 2758 2815 
Q 2500 3097 2075 3097 
Q 1594 3097 1305 2825 
Q 1016 2553 972 2059 
L 3022 2063 
z
" transform="scale(0.015625)"/>
        <path id="DejaVuSans-20" transform="scale(0.015625)"/>
        <path id="DejaVuSans-52" d="M 2841 2188 
Q 3044 2119 3236 1894 
Q 3428 1669 3622 1275 
L 4263 0 
L 3584 0 
L 2988 1197 
Q 2756 1666 2539 1819 
Q 2322 1972 1947 1972 
L 1259 1972 
L 1259 0 
L 628 0 
L 628 4666 
L 2053 4666 
Q 2853 4666 3247 4331 
Q 3641 3997 3641 3322 
Q 3641 2881 3436 2590 
Q 3231 2300 2841 2188 
z
M 1259 4147 
L 1259 2491 
L 2053 2491 
Q 2509 2491 2742 2702 
Q 2975 2913 2975 3322 
Q 2975 3731 2742 3939 
Q 2509 4147 2053 4147 
L 1259 4147 
z
" transform="scale(0.015625)"/>
        <path id="DejaVuSans-76" d="M 191 3500 
L 800 3500 
L 1894 563 
L 2988 3500 
L 3597 3500 
L 2284 0 
L 1503 0 
L 191 3500 
z
" transform="scale(0.015625)"/>
        <path id="DejaVuSans-77" d="M 269 3500 
L 844 3500 
L 1563 769 
L 2278 3500 
L 2956 3500 
L 3675 769 
L 4391 3500 
L 4966 3500 
L 4050 0 
L 3372 0 
L 2619 2869 
L 1863 0 
L 1184 0 
L 269 3500 
z
" transform="scale(0.015625)"/>
       </defs>
       <use xlink:href="#DejaVuSans-43"/>
       <use xlink:href="#DejaVuSans-6f" transform="translate(69.824219 0)"/>
       <use xlink:href="#DejaVuSans-64" transform="translate(131.005859 0)"/>
       <use xlink:href="#DejaVuSans-65" transform="translate(194.482422 0)"/>
       <use xlink:href="#DejaVuSans-20" transform="translate(256.005859 0)"/>
       <use xlink:href="#DejaVuSans-52" transform="translate(287.792969 0)"/>
       <use xlink:href="#DejaVuSans-65" transform="translate(352.775391 0)"/>
       <use xlink:href="#DejaVuSans-76" transform="translate(414.298828 0)"/>
       <use xlink:href="#DejaVuSans-69" transform="translate(473.478516 0)"/>
       <use xlink:href="#DejaVuSans-65" transform="translate(501.261719 0)"/>
       <use xlink:href="#DejaVuSans-77" transform="translate(562.785156 0)"/>
      </g>
     </g>
    </g>
    <g id="xtick_3">
     <g id="line2d_3">
      <path d="M 221.4 218.16 
L 55.08 218.16 
" clip-path="url(#p6ede8c47f8)" style="fill: none; stroke: #30363d; stroke-width: 0.8; stroke-linecap: square"/>
     </g>
     <g id="text_3">
      <!-- Pull Requests -->
      <g style="fill: #c9d1d9" transform="translate(4.364062 221.195312) scale(0.11 -0.11)">
       <defs>
        <path id="DejaVuSans-50" d="M 1259 4147 
L 1259 2394 
L 2053 2394 
Q 2494 2394 2734 2622 
Q 2975 2850 2975 3272 
Q 2975 3691 2734 3919 
Q 2494 4147 2053 4147 
L 1259 4147 
z
M 628 4666 
L 2053 4666 
Q 2838 4666 3239 4311 
Q 3641 3956 3641 3272 
Q 3641 2581 3239 2228 
Q 2838 1875 2053 1875 
L 1259 1875 
L 1259 0 
L 628 0 
L 628 4666 
z
" transform="scale(0.015625)"/>
        <path id="DejaVuSans-75" d="M 544 1381 
L 544 3500 
L 1119 3500 
L 1119 1403 
Q 1119 906 1312 657 
Q 1506 409 1894 409 
Q 2359 409 2629 706 
Q 2900 1003 2900 1516 
L 2900 3500 
L 3475 3500 
L 3475 0 
L 2900 0 
L 2900 538 
Q 2691 219 2414 64 
Q 2138 -91 1772 -91 
Q 1169 -91 856 284 
Q 544 659 544 1381 
z
M 1991 3584 
L 1991 3584 
z
" transform="scale(0.015625)"/>
        <path id="DejaVuSans-6c" d="M 603 4863 
L 1178 4863 
L 1178 0 
L 603 0 
L 603 4863 
z
" transform="scale(0.015625)"/>
        <path id="DejaVuSans-71" d="M 947 1747 
Q 947 1113 1208 752 
Q 1469 391 1925 391 
Q 2381 391 2643 752 
Q 2906 1113 2906 1747 
Q 2906 2381 2643 2742 
Q 2381 3103 1925 3103 
Q 1469 3103 1208 2742 
Q 947 2381 947 1747 
z
M 2906 525 
Q 2725 213 2448 61 
Q 2172 -91 1784 -91 
Q 1150 -91 751 415 
Q 353 922 353 1747 
Q 353 2572 751 3078 
Q 1150 3584 1784 3584 
Q 2172 3584 2448 3432 
Q 2725 3281 2906 2969 
L 2906 3500 
L 3481 3500 
L 3481 -1331 
L 2906 -1331 
L 2906 525 
z
" transform="scale(0.015625)"/>
       </defs>
       <use xlink:href="#DejaVuSans-50"/>
       <use xlink:href="#DejaVuSans-75" transform="translate(58.552734 0)"/>
       <use xlink:href="#DejaVuSans-6c" transform="translate(121.931641 0)"/>
       <use xlink:href="#DejaVuSans-6c" transform="translate(149.714844 0)"/>
       <use xlink:href="#DejaVuSans-20" transform="translate(177.498047 0)"/>
       <use xlink:href="#DejaVuSans-52" transform="translate(209.285156 0)"/>
       <use xlink:href="#DejaVuSans-65" transform="translate(274.267578 0)"/>
       <use xlink:href="#DejaVuSans-71" transform="translate(335.791016 0)"/>
       <use xlink:href="#DejaVuSans-75" transform="translate(399.267578 0)"/>
       <use xlink:href="#DejaVuSans-65" transform="translate(462.646484 0)"/>
       <use xlink:href="#DejaVuSans-73" transform="translate(524.169922 0)"/>
       <use xlink:href="#DejaVuSans-74" transform="translate(576.269531 0)"/>
       <use xlink:href="#DejaVuSans-73" transform="translate(615.478516 0)"/>
      </g>
     </g>
    </g>
    <g id="xtick_4">
     <g id="line2d_4">
      <path d="M 221.4 218.16 
L 221.4 384.48 
" clip-path="url(#p6ede8c47f8)" style="fill: none; stroke: #30363d; stroke-width: 0.8; stroke-linecap: square"/>
     </g>
     <g id="text_4">
      <!-- Issues -->
      <g style="fill: #c9d1d9" transform="translate(204.312187 401.515312) scale(0.11 -0.11)">
       <defs>
        <path id="DejaVuSans-49" d="M 628 4666 
L 1259 4666 
L 1259 0 
L 628 0 
L 628 4666 
z
" transform="scale(0.015625)"/>
       </defs>
       <use xlink:href="#DejaVuSans-49"/>
       <use xlink:href="#DejaVuSans-73" transform="translate(29.492188 0)"/>
       <use xlink:href="#DejaVuSans-73" transform="translate(81.591797 0)"/>
       <use xlink:href="#DejaVuSans-75" transform="translate(133.691406 0)"/>
       <use xlink:href="#DejaVuSans-65" transform="translate(197.070312 0)"/>
       <use xlink:href="#DejaVuSans-73" transform="translate(258.59375 0)"/>
      </g>
     </g>
    </g>
   </g>
   <g id="matplotlib.axis_2">
    <g id="ytick_1">
     <g id="line2d_5">
      <path d="M 253.08 218.16 
C 253.08 213.999821 252.260535 209.880094 250.668504 206.036589 
C 249.076472 202.193084 246.742834 198.700548 243.801143 195.758857 
C 240.859452 192.817166 237.366916 190.483528 233.523411 188.891496 
C 229.679906 187.299465 225.560179 186.48 221.4 186.48 
C 217.239821 186.48 213.120094 187.299465 209.276589 188.891496 
C 205.433084 190.483528 201.940548 192.817166 198.998857 195.758857 
C 196.057166 198.700548 193.723528 202.193084 192.131496 206.036589 
C 190.539465 209.880094 189.72 213.999821 189.72 218.16 
C 189.72 222.320179 190.539465 226.439906 192.131496 230.283411 
C 193.723528 234.126916 196.057166 237.619452 198.998857 240.561143 
C 201.940548 243.502834 205.433084 245.836472 209.276589 247.428504 
C 213.120094 249.020535 217.239821 249.84 221.4 249.84 
C 225.560179 249.84 229.679906 249.020535 233.523411 247.428504 
C 237.366916 245.836472 240.859452 243.502834 243.801143 240.561143 
C 246.742834 237.619452 249.076472 234.126916 250.668504 230.283411 
C 252.260535 226.439906 253.08 222.320179 253.08 218.16 
" clip-path="url(#p6ede8c47f8)" style="fill: none; stroke: #30363d; stroke-width: 0.8; stroke-linecap: square"/>
     </g>
    </g>
    <g id="ytick_2">
     <g id="line2d_6">
      <path d="M 284.76 218.16 
C 284.76 209.839641 283.121071 201.600187 279.937007 193.913178 
C 276.752944 186.226168 272.085668 179.241097 266.202286 173.357714 
C 260.318903 167.474332 253.333832 162.807056 245.646822 159.622993 
C 237.959813 156.438929 229.720359 154.8 221.4 154.8 
C 213.079641 154.8 204.840187 156.438929 197.153178 159.622993 
C 189.466168 162.807056 182.481097 167.474332 176.597714 173.357714 
C 170.714332 179.241097 166.047056 186.226168 162.862993 193.913178 
C 159.678929 201.600187 158.04 209.839641 158.04 218.16 
C 158.04 226.480359 159.678929 234.719813 162.862993 242.406822 
C 166.047056 250.093832 170.714332 257.078903 176.597714 262.962286 
C 182.481097 268.845668 189.466168 273.512944 197.153178 276.697007 
C 204.840187 279.881071 213.079641 281.52 221.4 281.52 
C 229.720359 281.52 237.959813 279.881071 245.646822 276.697007 
C 253.333832 273.512944 260.318903 268.845668 266.202286 262.962286 
C 272.085668 257.078903 276.752944 250.093832 279.937007 242.406822 
C 283.121071 234.719813 284.76 226.480359 284.76 218.16 
" clip-path="url(#p6ede8c47f8)" style="fill: none; stroke: #30363d; stroke-width: 0.8; stroke-linecap: square"/>
     </g>
    </g>
    <g id="ytick_3">
     <g id="line2d_7">
      <path d="M 316.44 218.16 
C 316.44 205.679462 313.981606 193.320281 309.205511 181.789767 
C 304.429415 170.259253 297.428502 159.781645 288.603428 150.956572 
C 279.778355 142.131498 269.300747 135.130585 257.770233 130.354489 
C 246.239719 125.578394 233.880538 123.12 221.4 123.12 
C 208.919462 123.12 196.560281 125.578394 185.029767 130.354489 
C 173.499253 135.130585 163.021645 142.131498 154.196572 150.956572 
C 145.371498 159.781645 138.370585 170.259253 133.594489 181.789767 
C 128.818394 193.320281 126.36 205.679462 126.36 218.16 
C 126.36 230.640538 128.818394 242.999719 133.594489 254.530233 
C 138.370585 266.060747 145.371498 276.538355 154.196572 285.363428 
C 163.021645 294.188502 173.499253 301.189415 185.029767 305.965511 
C 196.560281 310.741606 208.919462 313.2 221.4 313.2 
C 233.880538 313.2 246.239719 310.741606 257.770233 305.965511 
C 269.300747 301.189415 279.778355 294.188502 288.603428 285.363428 
C 297.428502 276.538355 304.429415 266.060747 309.205511 254.530233 
C 313.981606 242.999719 316.44 230.640538 316.44 218.16 
" clip-path="url(#p6ede8c47f8)" style="fill: none; stroke: #30363d; stroke-width: 0.8; stroke-linecap: square"/>
     </g>
    </g>
    <g id="ytick_4">
     <g id="line2d_8">
      <path d="M 348.12 218.16 
C 348.12 201.519282 344.842141 185.040374 338.474014 169.666355 
C 332.105887 154.292337 322.771336 140.322193 311.004571 128.555429 
C 299.237807 116.788664 285.267663 107.454113 269.893645 101.085986 
C 254.519626 94.717859 238.040718 91.44 221.4 91.44 
C 204.759282 91.44 188.280374 94.717859 172.906355 101.085986 
C 157.532337 107.454113 143.562193 116.788664 131.795429 128.555429 
C 120.028664 140.322193 110.694113 154.292337 104.325986 169.666355 
C 97.957859 185.040374 94.68 201.519282 94.68 218.16 
C 94.68 234.800718 97.957859 251.279626 104.325986 266.653645 
C 110.694113 282.027663 120.028664 295.997807 131.795429 307.764571 
C 143.562193 319.531336 157.532337 328.865887 172.906355 335.234014 
C 188.280374 341.602141 204.759282 344.88 221.4 344.88 
C 238.040718 344.88 254.519626 341.602141 269.893645 335.234014 
C 285.267663 328.865887 299.237807 319.531336 311.004571 307.764571 
C 322.771336 295.997807 332.105887 282.027663 338.474014 266.653645 
C 344.842141 251.279626 348.12 234.800718 348.12 218.16 
" clip-path="url(#p6ede8c47f8)" style="fill: none; stroke: #30363d; stroke-width: 0.8; stroke-linecap: square"/>
     </g>
    </g>
    <g id="ytick_5">
     <g id="line2d_9">
      <path d="M 379.8 218.16 
C 379.8 197.359103 375.702677 176.760468 367.742518 157.542944 
C 359.782359 138.325421 348.11417 120.862741 333.405714 106.154286 
C 318.697259 91.44583 301.234579 79.777641 282.017056 71.817482 
C 262.799532 63.857323 242.200897 59.76 221.4 59.76 
C 200.599103 59.76 180.000468 63.857323 160.782944 71.817482 
C 141.565421 79.777641 124.102741 91.44583 109.394286 106.154286 
C 94.68583 120.862741 83.017641 138.325421 75.057482 157.542944 
C 67.097323 176.760468 63 197.359103 63 218.16 
C 63 238.960897 67.097323 259.559532 75.057482 278.777056 
C 83.017641 297.994579 94.68583 315.457259 109.394286 330.165714 
C 124.102741 344.87417 141.565421 356.542359 160.782944 364.502518 
C 180.000468 372.462677 200.599103 376.56 221.4 376.56 
C 242.200897 376.56 262.799532 372.462677 282.017056 364.502518 
C 301.234579 356.542359 318.697259 344.87417 333.405714 330.165714 
C 348.11417 315.457259 359.782359 297.994579 367.742518 278.777056 
C 375.702677 259.559532 379.8 238.960897 379.8 218.16 
" clip-path="url(#p6ede8c47f8)" style="fill: none; stroke: #30363d; stroke-width: 0.8; stroke-linecap: square"/>
     </g>
    </g>
   </g>
   <g id="line2d_10">
    <path d="M 379.8 218.16 
L 221.4 218.16 
L 152.286989 218.16 
L 221.4 274.236068 
L 379.8 218.16 
" clip-path="url(#p6ede8c47f8)" style="fill: none; stroke: #2ea043; stroke-width: 2; stroke-linecap: square"/>
   </g>
   <g id="patch_4">
    <path d="M 387.72 218.16 
C 387.72 196.319058 383.417811 174.690491 375.059644 154.512092 
C 366.701477 134.333692 354.449878 115.997879 339.006 100.554 
C 323.562121 85.110122 305.226308 72.858523 285.047908 64.500356 
C 264.869509 56.142189 243.240942 51.84 221.4 51.84 
C 199.559058 51.84 177.930491 56.142189 157.752092 64.500356 
C 137.573692 72.858523 119.237879 85.110122 103.794 100.554 
C 88.350122 115.997879 76.098523 134.333692 67.740356 154.512092 
C 59.382189 174.690491 55.08 196.319058 55.08 218.16 
C 55.08 240.000942 59.382189 261.629509 67.740356 281.807908 
C 76.098523 301.986308 88.350122 320.322121 103.794 335.766 
C 119.237879 351.209878 137.573692 363.461477 157.752092 371.819644 
C 177.930491 380.177811 199.559058 384.48 221.4 384.48 
C 243.240942 384.48 264.869509 380.177811 285.047908 371.819644 
C 305.226308 363.461477 323.562121 351.209878 339.006 335.766 
C 354.449878 320.322121 366.701477 301.986308 375.059644 281.807908 
C 383.417811 261.629509 387.72 240.000942 387.72 218.16 
" style="fill: none; stroke: #30363d; stroke-width: 0.8; stroke-linejoin: miter; stroke-linecap: square"/>
   </g>
   <g id="text_5">
    <!-- Contribution Breakdown -->
    <g style="fill: #c9d1d9" transform="translate(148.75875 12.517031) scale(0.12 -0.12)">
     <defs>
      <path id="DejaVuSans-6e" d="M 3513 2113 
L 3513 0 
L 2938 0 
L 2938 2094 
Q 2938 2591 2744 2837 
Q 2550 3084 2163 3084 
Q 1697 3084 1428 2787 
Q 1159 2491 1159 1978 
L 1159 0 
L 581 0 
L 581 3500 
L 1159 3500 
L 1159 2956 
Q 1366 3272 1645 3428 
Q 1925 3584 2291 3584 
Q 2894 3584 3203 3211 
Q 3513 2838 3513 2113 
z
" transform="scale(0.015625)"/>
      <path id="DejaVuSans-72" d="M 2631 2963 
Q 2534 3019 2420 3045 
Q 2306 3072 2169 3072 
Q 1681 3072 1420 2755 
Q 1159 2438 1159 1844 
L 1159 0 
L 581 0 
L 581 3500 
L 1159 3500 
L 1159 2956 
Q 1341 3275 1631 3429 
Q 1922 3584 2338 3584 
Q 2397 3584 2469 3576 
Q 2541 3569 2628 3553 
L 2631 2963 
z
" transform="scale(0.015625)"/>
      <path id="DejaVuSans-62" d="M 3116 1747 
Q 3116 2381 2855 2742 
Q 2594 3103 2138 3103 
Q 1681 3103 1420 2742 
Q 1159 2381 1159 1747 
Q 1159 1113 1420 752 
Q 1681 391 2138 391 
Q 2594 391 2855 752 
Q 3116 1113 3116 1747 
z
M 1159 2969 
Q 1341 3281 1617 3432 
Q 1894 3584 2278 3584 
Q 2916 3584 3314 3078 
Q 3713 2572 3713 1747 
Q 3713 922 3314 415 
Q 2916 -91 2278 -91 
Q 1894 -91 1617 61 
Q 1341 213 1159 525 
L 1159 0 
L 581 0 
L 581 4863 
L 1159 4863 
L 1159 2969 
z
" transform="scale(0.015625)"/>
      <path id="DejaVuSans-42" d="M 1259 2228 
L 1259 519 
L 2272 519 
Q 2781 519 3026 730 
Q 3272 941 3272 1375 
Q 3272 1813 3026 2020 
Q 2781 2228 2272 2228 
L 1259 2228 
z
M 1259 4147 
L 1259 2741 
L 2194 2741 
Q 2656 2741 2882 2914 
Q 3109 3088 3109 3444 
Q 3109 3797 2882 3972 
Q 2656 4147 2194 4147 
L 1259 4147 
z
M 628 4666 
L 2241 4666 
Q 2963 4666 3353 4366 
Q 3744 4066 3744 3513 
Q 3744 3084 3544 2831 
Q 3344 2578 2956 2516 
Q 3422 2416 3680 2098 
Q 3938 1781 3938 1306 
Q 3938 681 3513 340 
Q 3088 0 2303 0 
L 628 0 
L 628 4666 
z
" transform="scale(0.015625)"/>
      <path id="DejaVuSans-61" d="M 2194 1759 
Q 1497 1759 1228 1600 
Q 959 1441 959 1056 
Q 959 750 1161 570 
Q 1363 391 1709 391 
Q 2188 391 2477 730 
Q 2766 1069 2766 1631 
L 2766 1759 
L 2194 1759 
z
M 3341 1997 
L 3341 0 
L 2766 0 
L 2766 531 
Q 2569 213 2275 61 
Q 1981 -91 1556 -91 
Q 1019 -91 701 211 
Q 384 513 384 1019 
Q 384 1609 779 1909 
Q 1175 2209 1959 2209 
L 2766 2209 
L 2766 2266 
Q 2766 2663 2505 2880 
Q 2244 3097 1772 3097 
Q 1472 3097 1187 3025 
Q 903 2953 641 2809 
L 641 3341 
Q 956 3463 1253 3523 
Q 1550 3584 1831 3584 
Q 2591 3584 2966 3190 
Q 3341 2797 3341 1997 
z
" transform="scale(0.015625)"/>
      <path id="DejaVuSans-6b" d="M 581 4863 
L 1159 4863 
L 1159 1991 
L 2875 3500 
L 3609 3500 
L 1753 1863 
L 3688 0 
L 2938 0 
L 1159 1709 
L 1159 0 
L 581 0 
L 581 4863 
z
" transform="scale(0.015625)"/>
     </defs>
     <use xlink:href="#DejaVuSans-43"/>
     <use xlink:href="#DejaVuSans-6f" transform="translate(69.824219 0)"/>
     <use xlink:href="#DejaVuSans-6e" transform="translate(131.005859 0)"/>
     <use xlink:href="#DejaVuSans-74" transform="translate(194.384766 0)"/>
     <use xlink:href="#DejaVuSans-72" transform="translate(233.59375 0)"/>
     <use xlink:href="#DejaVuSans-69" transform="translate(274.707031 0)"/>
     <use xlink:href="#DejaVuSans-62" transform="translate(302.490234 0)"/>
     <use xlink:href="#DejaVuSans-75" transform="translate(365.966797 0)"/>
     <use xlink:href="#DejaVuSans-74" transform="translate(429.345703 0)"/>
     <use xlink:href="#DejaVuSans-69" transform="translate(468.554688 0)"/>
     <use xlink:href="#DejaVuSans-6f" transform="translate(496.337891 0)"/>
     <use xlink:href="#DejaVuSans-6e" transform="translate(557.519531 0)"/>
     <use xlink:href="#DejaVuSans-20" transform="translate(620.898438 0)"/>
     <use xlink:href="#DejaVuSans-42" transform="translate(652.685547 0)"/>
     <use xlink:href="#DejaVuSans-72" transform="translate(721.289062 0)"/>
     <use xlink:href="#DejaVuSans-65" transform="translate(760.152344 0)"/>
     <use xlink:href="#DejaVuSans-61" transform="translate(821.675781 0)"/>
     <use xlink:href="#DejaVuSans-6b" transform="translate(882.955078 0)"/>
     <use xlink:href="#DejaVuSans-64" transform="translate(940.865234 0)"/>
     <use xlink:href="#DejaVuSans-6f" transform="translate(1004.341797 0)"/>
     <use xlink:href="#DejaVuSans-77" transform="translate(1065.523438 0)"/>
     <use xlink:href="#DejaVuSans-6e" transform="translate(1147.310547 0)"/>
    </g>
   </g>
  </g>
 </g>
 <defs>
  <clipPath id="p6ede8c47f8">
   <path d="M 387.72 218.16 
C 387.72 196.319058 383.417811 174.690491 375.059644 154.512092 
C 366.701477 134.333692 354.449878 115.997879 339.006 100.554 
C 323.562121 85.110122 305.226308 72.858523 285.047908 64.500356 
C 264.869509 56.142189 243.240942 51.84 221.4 51.84 
C 199.559058 51.84 177.930491 56.142189 157.752092 64.500356 
C 137.573692 72.858523 119.237879 85.110122 103.794 100.554 
C 88.350122 115.997879 76.098523 134.333692 67.740356 154.512092 
C 59.382189 174.690491 55.08 196.319058 55.08 218.16 
C 55.08 240.000942 59.382189 261.629509 67.740356 281.807908 
C 76.098523 301.986308 88.350122 320.322121 103.794 335.766 
C 119.237879 351.209878 137.573692 363.461477 157.752092 371.819644 
C 177.930491 380.177811 199.559058 384.48 221.4 384.48 
C 243.240942 384.48 264.869509 380.177811 285.047908 371.819644 
C 305.226308 363.461477 323.562121 351.209878 339.006 335.766 
C 354.449878 320.322121 366.701477 301.986308 375.059644 281.807908 
C 383.417811 261.629509 387.72 240.000942 387.72 218.16 
M 221.4 218.16 
C 221.4 218.16 221.4 218.16 221.4 218.16 
C 221.4 218.16 221.4 218.16 221.4 218.16 
C 221.4 218.16 221.4 218.16 221.4 218.16 
C 221.4 218.16 221.4 218.16 221.4 218.16 
C 221.4 218.16 221.4 218.16 221.4 218.16 
C 221.4 218.16 221.4 218.16 221.4 218.16 
C 221.4 218.16 221.4 218.16 221.4 218.16 
C 221.4 218.16 221.4 218.16 221.4 218.16 
C 221.4 218.16 221.4 218.16 221.4 218.16 
C 221.4 218.16 221.4 218.16 221.4 218.16 
C 221.4 218.16 221.4 218.16 221.4 218.16 
C 221.4 218.16 221.4 218.16 221.4 218.16 
C 221.4 218.16 221.4 218.16 221.4 218.16 
C 221.4 218.16 221.4 218.16 221.4 218.16 
C 221.4 218.16 221.4 218.16 221.4 218.16 
C 221.4 218.16 221.4 218.16 221.4 218.16 
z
"/>
  </clipPath>
 </defs>
</svg>
