<svg width="1400" height="420" viewBox="0 0 1400 420" fill="none" xmlns="http://www.w3.org/2000/svg">
  <defs>
    <linearGradient id="bg" x1="0" y1="0" x2="1400" y2="420" gradientUnits="userSpaceOnUse">
      <stop offset="0" stop-color="#020617"/>
      <stop offset="0.55" stop-color="#07111f"/>
      <stop offset="1" stop-color="#0f172a"/>
    </linearGradient>
    <radialGradient id="mist" cx="0" cy="0" r="1" gradientUnits="userSpaceOnUse" gradientTransform="translate(235 102) rotate(38) scale(250 180)">
      <stop offset="0" stop-color="#7dd3fc" stop-opacity="0.18"/>
      <stop offset="0.6" stop-color="#38bdf8" stop-opacity="0.06"/>
      <stop offset="1" stop-color="#38bdf8" stop-opacity="0"/>
    </radialGradient>
    <radialGradient id="mist2" cx="0" cy="0" r="1" gradientUnits="userSpaceOnUse" gradientTransform="translate(1090 280) rotate(-24) scale(260 200)">
      <stop offset="0" stop-color="#fbbf24" stop-opacity="0.14"/>
      <stop offset="0.65" stop-color="#f59e0b" stop-opacity="0.05"/>
      <stop offset="1" stop-color="#f59e0b" stop-opacity="0"/>
    </radialGradient>
    <radialGradient id="glow" cx="0" cy="0" r="1" gradientUnits="userSpaceOnUse" gradientTransform="translate(1038 182) rotate(90) scale(92 92)">
      <stop offset="0" stop-color="#f8fafc" stop-opacity="0.42"/>
      <stop offset="0.45" stop-color="#7dd3fc" stop-opacity="0.2"/>
      <stop offset="1" stop-color="#0b1120" stop-opacity="0"/>
    </radialGradient>
    <linearGradient id="ring" x1="940" y1="160" x2="1160" y2="216" gradientUnits="userSpaceOnUse">
      <stop offset="0" stop-color="#f8fafc"/>
      <stop offset="0.35" stop-color="#e2e8f0"/>
      <stop offset="0.68" stop-color="#fbbf24"/>
      <stop offset="1" stop-color="#7dd3fc"/>
    </linearGradient>
    <linearGradient id="title" x1="118" y1="114" x2="470" y2="214" gradientUnits="userSpaceOnUse">
      <stop offset="0" stop-color="#f8fafc"/>
      <stop offset="1" stop-color="#cbd5e1"/>
    </linearGradient>
    <pattern id="grid" width="78" height="78" patternUnits="userSpaceOnUse">
      <path d="M78 0H0V78" stroke="#334155" stroke-opacity="0.16" stroke-width="1"/>
    </pattern>
  </defs>

  <rect width="1400" height="420" fill="url(#bg)"/>
  <rect width="1400" height="420" fill="url(#grid)" opacity="0.55"/>
  <rect width="1400" height="420" fill="url(#mist)"/>
  <rect width="1400" height="420" fill="url(#mist2)"/>

  <g fill="#e2e8f0">
    <circle cx="88" cy="54" r="1.2" opacity="0.9"/>
    <circle cx="170" cy="82" r="1.6" opacity="0.45"/>
    <circle cx="220" cy="44" r="1.1" opacity="0.75"/>
    <circle cx="358" cy="88" r="1.4" opacity="0.5"/>
    <circle cx="484" cy="58" r="1.1" opacity="0.8"/>
    <circle cx="578" cy="92" r="1.8" opacity="0.35"/>
    <circle cx="112" cy="258" r="1.3" opacity="0.55"/>
    <circle cx="240" cy="306" r="1.5" opacity="0.65"/>
    <circle cx="470" cy="274" r="1.2" opacity="0.45"/>
    <circle cx="630" cy="60" r="1.1" opacity="0.5"/>
    <circle cx="756" cy="92" r="1.6" opacity="0.4"/>
    <circle cx="856" cy="48" r="1.2" opacity="0.7"/>
    <circle cx="972" cy="86" r="1.4" opacity="0.35"/>
    <circle cx="1170" cy="46" r="1.4" opacity="0.7"/>
    <circle cx="1264" cy="96" r="1.1" opacity="0.55"/>
    <circle cx="1322" cy="64" r="1.5" opacity="0.8"/>
    <circle cx="1044" cy="320" r="1.6" opacity="0.45"/>
    <circle cx="1228" cy="286" r="1.2" opacity="0.7"/>
    <circle cx="1308" cy="240" r="1.4" opacity="0.5"/>
  </g>

  <g stroke="#94a3b8" stroke-opacity="0.18" fill="none">
    <path d="M88 340C262 254 388 230 598 246" stroke-width="2"/>
    <path d="M146 286C328 214 502 194 716 216" stroke-width="1.5"/>
    <path d="M812 112C918 92 1034 96 1148 138" stroke-width="1.4"/>
  </g>

  <g transform="translate(116 114)">
    <text x="0" y="0" fill="url(#title)" font-family="ui-sans-serif, system-ui, -apple-system, BlinkMacSystemFont, 'Segoe UI', sans-serif" font-size="78" font-weight="700" letter-spacing="-2">Viverun</text>
    <text x="2" y="52" fill="#cbd5e1" font-family="ui-sans-serif, system-ui, -apple-system, BlinkMacSystemFont, 'Segoe UI', sans-serif" font-size="24" font-weight="500" letter-spacing="0.5">AI agents, orchestration, legal data</text>
    <text x="2" y="92" fill="#94a3b8" font-family="ui-monospace, SFMono-Regular, Menlo, Monaco, Consolas, monospace" font-size="15">quiet systems. useful orchestration. practical intelligence.</text>
  </g>

  <g transform="translate(930 58)">
    <ellipse cx="170" cy="178" rx="142" ry="46" fill="none" stroke="#f8fafc" stroke-opacity="0.12" stroke-width="2" transform="rotate(-16 170 178)"/>
    <ellipse cx="170" cy="178" rx="116" ry="36" fill="none" stroke="#7dd3fc" stroke-opacity="0.22" stroke-width="2" transform="rotate(10 170 178)"/>
    <circle cx="170" cy="178" r="83" fill="#020617"/>
    <circle cx="170" cy="178" r="98" fill="url(#glow)"/>
    <circle cx="170" cy="178" r="63" fill="none" stroke="url(#ring)" stroke-width="19" opacity="0.96"/>
    <path d="M20 178C58 146 105 126 150 118C206 108 253 118 322 150" stroke="#e2e8f0" stroke-opacity="0.16" stroke-width="3" stroke-linecap="round"/>
    <path d="M32 198C74 168 122 152 172 150C220 148 270 158 316 182" stroke="#fbbf24" stroke-opacity="0.42" stroke-width="4" stroke-linecap="round"/>
    <circle cx="42" cy="174" r="4.5" fill="#f8fafc"/>
    <circle cx="304" cy="184" r="3.5" fill="#7dd3fc"/>
    <circle cx="80" cy="128" r="2.5" fill="#fbbf24"/>
    <circle cx="266" cy="124" r="2.2" fill="#f8fafc" opacity="0.85"/>
  </g>
</svg>
